HIERARCHY
ROOT Hips
{
	OFFSET 0.00000 0.00000 0.00000
	CHANNELS 6 Xposition Yposition Zposition Zrotation Yrotation Xrotation 
	JOINT LHipJoint
	{
		OFFSET 0 0 0
		CHANNELS 3 Zrotation Yrotation Xrotation
		JOINT LeftUpLeg
		{
			OFFSET 1.62964 -1.40469 0.78906
			CHANNELS 3 Zrotation Yrotation Xrotation
			JOINT LeftLeg
			{
				OFFSET 2.29640 -6.30932 0.00000
				CHANNELS 3 Zrotation Yrotation Xrotation
				JOINT LeftFoot
				{
					OFFSET 2.29451 -6.30412 0.00000
					CHANNELS 3 Zrotation Yrotation Xrotation
					JOINT LeftToeBase
					{
						OFFSET 0.03611 -0.09921 1.56387
						CHANNELS 3 Zrotation Yrotation Xrotation
						End Site
						{
							OFFSET 0.00000 -0.00000 0.80291
						}
					}
				}
			}
		}
	}
	JOINT RHipJoint
	{
		OFFSET 0 0 0
		CHANNELS 3 Zrotation Yrotation Xrotation
		JOINT RightUpLeg
		{
			OFFSET -1.73712 -1.40469 0.78906
			CHANNELS 3 Zrotation Yrotation Xrotation
			JOINT RightLeg
			{
				OFFSET -2.28137 -6.26801 0.00000
				CHANNELS 3 Zrotation Yrotation Xrotation
				JOINT RightFoot
				{
					OFFSET -2.28681 -6.28298 0.00000
					CHANNELS 3 Zrotation Yrotation Xrotation
					JOINT RightToeBase
					{
						OFFSET -0.15927 -0.43759 1.61103
						CHANNELS 3 Zrotation Yrotation Xrotation
						End Site
						{
							OFFSET -0.00000 -0.00000 0.84630
						}
					}
				}
			}
		}
	}
	JOINT LowerBack
	{
		OFFSET 0 0 0
		CHANNELS 3 Zrotation Yrotation Xrotation
		JOINT Spine
		{
			OFFSET -0.04227 2.04338 -0.00225
			CHANNELS 3 Zrotation Yrotation Xrotation
			JOINT Spine1
			{
				OFFSET -0.02148 2.04482 -0.04273
				CHANNELS 3 Zrotation Yrotation Xrotation
				JOINT Neck
				{
					OFFSET 0 0 0
					CHANNELS 3 Zrotation Yrotation Xrotation
					JOINT Neck1
					{
						OFFSET 0.09180 1.44629 0.19359
						CHANNELS 3 Zrotation Yrotation Xrotation
						JOINT Head
						{
							OFFSET 0.00887 1.40645 0.14750
							CHANNELS 3 Zrotation Yrotation Xrotation
							End Site
							{
								OFFSET -0.00669 1.50671 0.03707
							}
						}
					}
				}
				JOINT LeftShoulder
				{
					OFFSET 0 0 0
					CHANNELS 3 Zrotation Yrotation Xrotation
					JOINT LeftArm
					{
						OFFSET 2.17674 1.86763 -0.06520
						CHANNELS 3 Zrotation Yrotation Xrotation
						JOINT LeftForeArm
						{
							OFFSET 4.65776 -0.00000 0.00000
							CHANNELS 3 Zrotation Yrotation Xrotation
							JOINT LeftHand
							{
								OFFSET 3.55539 -0.00000 0.00000
								CHANNELS 3 Zrotation Yrotation Xrotation
								JOINT LeftFingerBase
								{
									OFFSET 0 0 0
									CHANNELS 3 Zrotation Yrotation Xrotation
									JOINT LeftHandIndex1
									{
										OFFSET 0.70726 -0.00000 0.00000
										CHANNELS 3 Zrotation Yrotation Xrotation
										End Site
										{
											OFFSET 0.57022 -0.00000 0.00000
										}
									}
								}
								JOINT LThumb
								{
									OFFSET 0 0 0
									CHANNELS 3 Zrotation Yrotation Xrotation
									End Site
									{
										OFFSET 0.57892 -0.00000 0.57892
									}
								}
							}
						}
					}
				}
				JOINT RightShoulder
				{
					OFFSET 0 0 0
					CHANNELS 3 Zrotation Yrotation Xrotation
					JOINT RightArm
					{
						OFFSET -2.80694 1.55459 -0.32496
						CHANNELS 3 Zrotation Yrotation Xrotation
						JOINT RightForeArm
						{
							OFFSET -4.71925 -0.00000 -0.00000
							CHANNELS 3 Zrotation Yrotation Xrotation
							JOINT RightHand
							{
								OFFSET -3.56990 -0.00000 0.00000
								CHANNELS 3 Zrotation Yrotation Xrotation
								JOINT RightFingerBase
								{
									OFFSET 0 0 0
									CHANNELS 3 Zrotation Yrotation Xrotation
									JOINT RightHandIndex1
									{
										OFFSET -0.50776 -0.00000 0.00000
										CHANNELS 3 Zrotation Yrotation Xrotation
										End Site
										{
											OFFSET -0.40937 -0.00000 0.00000
										}
									}
								}
								JOINT RThumb
								{
									OFFSET 0 0 0
									CHANNELS 3 Zrotation Yrotation Xrotation
									End Site
									{
										OFFSET -0.41562 -0.00000 0.41562
									}
								}
							}
						}
					}
				}
			}
		}
	}
}
MOTION
Frames: 9
Frame Time: .0083333
-0.9335 17.5734 18.7889 182.8450 -9.8849 -163.5540 0.0000 0.0000 0.0000 -18.3556 -20.7473 -7.0184 1.6684 8.1382 23.1347 0.9324 -11.9948 -17.9899 0.0153 -0.7978 -2.1926 0.0000 0.0000 0.0000 0.4085 13.7965 -47.6425 -1.7571 -8.3406 23.7534 -0.2456 -8.0375 -15.5149 -0.6948 5.3285 -14.8480 -7.9438 -3.7832 -23.4573 1.0569 -3.0443 1.4235 4.6620 -2.1330 15.4302 -1.5340 -1.0710 4.7142 7.8763 -3.1409 10.9060 2.8074 -1.8341 2.8691 -0.0000 -0.0000 0.0000 -78.9677 4.7313 21.1902 13.4759 -21.9805 -2.6287 -0.0000 -0.0000 1.8681 22.7854 -11.4632 -4.7721 -7.1250 0.0000 -0.0000 -3.0499 17.5859 1.9887 -0.0000 -0.0000 0.0000 89.4724 -10.0565 6.1627 -18.0929 28.2760 -4.5932 0.0000 -0.0000 -1.5114 -15.1503 -53.6631 12.3042 7.1250 -0.0000 -0.0000 68.3677 -77.1242 -55.6389
-0.9111 17.5598 18.7216 182.9610 -10.0828 -163.7650 0.0000 0.0000 0.0000 -18.2009 -20.6316 -6.6072 1.6790 8.1627 23.2094 0.9299 -12.2212 -18.0262 0.0056 -0.4828 -1.3268 0.0000 0.0000 0.0000 -0.3374 14.0308 -47.3521 -1.5811 -7.9329 22.5105 -0.1558 -8.6653 -14.9363 -0.6839 5.2874 -14.7300 -8.0128 -3.7922 -23.4627 1.0874 -3.0417 1.4063 4.7385 -2.1389 15.4186 -1.6102 -1.2868 4.3598 8.1918 -3.5852 11.5316 2.9282 -2.0562 3.1869 -0.0000 0.0000 0.0000 -78.8207 4.7305 21.2282 13.4411 -21.9301 -2.6157 -0.0000 -0.0000 1.8936 22.9485 -11.6286 -4.8782 -7.1250 0.0000 -0.0000 -2.9427 17.3927 1.9311 -0.0000 0.0000 0.0000 89.6295 -10.3502 5.6856 -17.9977 28.1543 -4.5482 0.0000 -0.0000 -1.1519 -15.2927 -53.9597 12.4675 7.1250 -0.0000 -0.0000 69.6211 -77.2470 -56.9386
-0.8878 17.5474 18.6492 182.9690 -10.3769 -164.0320 0.0000 0.0000 0.0000 -18.2065 -20.6074 -6.0304 1.6885 8.1846 23.2763 0.9516 -12.1949 -18.1950 0.0225 -0.9679 -2.6604 0.0000 0.0000 0.0000 -1.0512 14.0099 -46.9487 -1.4234 -7.5445 21.3390 -0.0439 -9.4175 -14.1542 -0.8358 5.8320 -16.2977 -8.1810 -3.8874 -23.4543 1.1026 -3.1184 1.4586 4.8233 -2.1910 15.5022 -1.4677 -1.1286 5.2500 7.9982 -3.1545 10.3102 2.8357 -1.8501 2.5732 0.0000 -0.0000 0.0000 -78.6620 4.8031 21.4107 13.5693 -22.1156 -2.6638 -0.0000 -0.0000 1.4977 22.9584 -11.5853 -4.8627 -7.1250 0.0000 -0.0000 -2.9339 17.4383 1.9224 0.0000 -0.0000 0.0000 89.7300 -10.5532 5.3779 -17.8494 27.9639 -4.4784 0.0000 -0.0000 -0.8270 -15.0838 -53.6765 12.2513 7.1250 -0.0000 -0.0000 68.4438 -77.1014 -55.6852
-0.8632 17.5349 18.5786 183.1050 -10.7133 -164.2760 0.0000 0.0000 0.0000 -17.9991 -20.5230 -5.6044 1.7061 8.2250 23.3996 0.9896 -12.1739 -18.4952 0.0819 -1.8464 -5.0813 0.0000 0.0000 0.0000 -1.7971 14.2792 -46.4457 -1.2727 -7.1500 20.1604 0.0804 -10.3775 -13.4335 -0.9860 6.3203 -17.7166 -8.1554 -3.9602 -23.4242 1.1020 -3.2223 1.4841 4.7689 -2.2360 15.5310 -1.6974 -1.5045 4.3239 8.4175 -3.8837 11.3737 3.0171 -2.2010 3.1669 -0.0000 -0.0000 0.0000 -78.3694 4.9727 21.7541 13.7983 -22.4456 -2.7506 -0.0000 -0.0000 0.8995 22.7393 -11.1363 -4.6280 -7.1250 0.0000 -0.0000 -3.0690 17.9417 1.9772 -0.0000 -0.0000 0.0000 89.8984 -10.6526 4.9259 -17.5885 27.6270 -4.3567 0.0000 -0.0000 -0.4982 -14.8461 -52.6872 11.9049 7.1250 -0.0000 -0.0000 64.3639 -76.7365 -51.5492
-0.8389 17.5221 18.5101 183.3410 -10.9671 -164.5180 0.0000 0.0000 0.0000 -17.6659 -20.3672 -5.2433 1.7197 8.2560 23.4943 1.0172 -12.3034 -18.7450 0.1210 -2.2429 -6.1774 0.0000 0.0000 0.0000 -2.4102 14.5816 -46.0393 -1.1413 -6.7842 19.0777 0.2085 -11.2515 -12.4770 -1.1562 6.8269 -19.2034 -7.9827 -3.9441 -23.3735 1.0934 -3.2556 1.4493 4.6493 -2.2327 15.4515 -1.4229 -1.2986 4.7746 8.1691 -3.5570 11.2006 2.8857 -2.0486 2.9902 -0.0000 -0.0000 0.0000 -78.0885 5.1682 21.9047 13.9408 -22.6501 -2.8053 -0.0000 -0.0000 0.7899 22.5828 -11.0463 -4.5562 -7.1250 0.0000 -0.0000 -3.1756 18.0523 2.0383 -0.0000 -0.0000 0.0000 90.1558 -10.9228 4.2795 -17.4069 27.3911 -4.2729 0.0000 -0.0000 -0.2120 -14.7717 -51.8484 11.7146 7.1250 -0.0000 -0.0000 61.0315 -76.4218 -48.2232
-0.8123 17.5092 18.4400 183.6190 -11.1791 -164.7410 0.0000 0.0000 0.0000 -17.2845 -20.2574 -4.8724 1.7292 8.2777 23.5607 1.0262 -12.4562 -18.8520 0.1236 -2.2667 -6.2433 0.0000 0.0000 0.0000 -2.8518 14.7688 -45.7132 -1.0199 -6.4247 18.0219 0.3239 -12.0961 -11.6688 -1.2152 6.9926 -19.6933 -7.8589 -3.9778 -23.4184 1.1645 -3.3402 1.4620 4.6281 -2.2657 15.5028 -1.3816 -1.1272 5.3209 8.0657 -3.2409 10.7042 2.8453 -1.9042 2.6994 0.0000 0.0000 0.0000 -77.9547 5.2919 21.9390 14.0710 -22.8361 -2.8556 -0.0000 -0.0000 0.6851 22.7042 -11.1654 -4.6319 -7.1250 0.0000 -0.0000 -3.0948 17.9135 1.9958 0.0000 0.0000 0.0000 90.2354 -11.1158 3.9961 -17.2911 27.2399 -4.2197 0.0000 -0.0000 -0.1208 -14.8348 -51.6373 11.7323 7.1250 -0.0000 -0.0000 60.1733 -76.3672 -47.4044
-0.7826 17.4948 18.3661 183.7830 -11.4283 -164.8410 0.0000 0.0000 0.0000 -16.9700 -20.2212 -4.5993 1.7428 8.3086 23.6553 1.0069 -12.7720 -18.7801 0.0694 -1.7001 -4.6775 0.0000 0.0000 0.0000 -3.5549 15.1251 -45.3749 -0.8965 -6.0347 16.8850 0.4540 -13.2821 -11.3464 -1.1339 6.7628 -19.0145 -7.8954 -4.0663 -23.5916 1.2094 -3.4384 1.4848 4.6582 -2.3200 15.6531 -1.4361 -0.9128 5.4036 8.0074 -2.9223 10.6063 2.8376 -1.7475 2.6325 0.0000 -0.0000 0.0000 -77.7726 5.3025 21.9889 14.2028 -23.0239 -2.9070 -0.0000 -0.0000 0.4621 22.7230 -10.7851 -4.4808 -7.1250 0.0000 -0.0000 -3.0671 18.3208 1.9504 0.0000 -0.0000 0.0000 90.3467 -11.3212 3.9255 -17.3321 27.2934 -4.2385 0.0000 -0.0000 -0.1410 -15.0645 -52.3427 12.0289 7.1250 -0.0000 -0.0000 62.8602 -76.7110 -50.1617
-0.7508 17.4804 18.2943 183.9040 -11.6132 -164.9150 0.0000 0.0000 0.0000 -16.6586 -20.0767 -4.3904 1.7531 8.3317 23.7263 0.9685 -13.1887 -18.5916 0.0087 -0.6026 -1.6559 0.0000 0.0000 0.0000 -4.3453 15.6232 -45.1710 -0.8084 -5.7378 16.0257 0.5862 -14.5156 -11.3274 -0.9622 6.2459 -17.4996 -7.9655 -4.1116 -23.6886 1.2173 -3.4760 1.4433 4.6905 -2.3437 15.6703 -1.2356 -1.2147 4.7979 8.2344 -3.5430 11.6353 2.8772 -2.0491 3.1334 -0.0000 -0.0000 0.0000 -77.5569 5.3642 21.9628 14.3054 -23.1697 -2.9472 -0.0000 -0.0000 0.5074 22.5589 -10.6500 -4.3902 -7.1250 0.0000 -0.0000 -3.1781 18.4802 2.0099 -0.0000 -0.0000 0.0000 90.5749 -11.6989 3.7144 -17.4521 27.4500 -4.2937 0.0000 -0.0000 -0.1260 -15.3316 -53.3478 12.4049 7.1250 -0.0000 -0.0000 66.9556 -77.1163 -54.3235
-0.7203 17.4675 18.2263 184.1440 -11.7561 -165.0970 0.0000 0.0000 0.0000 -16.2461 -19.8933 -4.1245 1.7641 8.3563 23.8017 0.9233 -13.6226 -18.3631 0.0053 0.4715 1.2956 0.0000 0.0000 0.0000 -4.8061 15.9712 -45.0102 -0.7474 -5.5221 15.4040 0.6925 -15.4313 -11.2682 -0.8155 5.7623 -16.0963 -7.9041 -4.1427 -23.6098 1.3102 -3.5586 1.3914 4.7364 -2.3775 15.5767 -1.5077 -1.1706 4.9325 8.2869 -3.4437 11.3884 2.9463 -2.0073 3.0251 0.0000 -0.0000 0.0000 -77.4854 5.5612 22.0309 14.4467 -23.3698 -3.0030 -0.0000 -0.0000 0.6097 22.6472 -10.9256 -4.5215 -7.1250 0.0000 -0.0000 -3.1257 18.1764 1.9977 0.0000 -0.0000 0.0000 90.5855 -11.8751 3.3532 -17.2829 27.2292 -4.2160 0.0000 0.0000 0.0576 -15.0755 -53.4445 12.2091 7.1250 -0.0000 -0.0000 67.4510 -77.0410 -54.7008
